<svg width="895" height="449" viewBox="0 0 895 449" fill="none" xmlns="http://www.w3.org/2000/svg">
<g clip-path="url(#clip0_172_103)">
<path d="M294.489 448.282C267.506 448.282 240.563 447.799 213.661 446.833C175.22 445.452 135.471 444.025 98.525 423.534C72.6799 409.201 49.7901 386.205 32.3308 357.03C20.6613 337.256 12.1047 315.803 6.96154 293.426C-2.63239 252.684 -2.3056 210.235 7.91441 169.646C11.4959 155.73 16.4332 142.199 22.6555 129.246C49.5985 73.4528 98.7404 36.0002 157.481 26.4924C157.966 26.4294 158.457 26.419 158.944 26.4611C159.209 26.4753 159.472 26.4904 159.74 26.4792L160.086 26.3693C160.972 26.0614 161.882 25.8279 162.807 25.6711C253.401 12.1843 349.172 39.4729 439.759 104.584C509.801 154.936 602.626 182.049 723.54 187.474L725.257 187.563C758.916 189.497 791.475 203.374 819.417 227.696C846.997 251.702 867.704 283.73 879.301 320.32C880.727 324.781 882.034 329.425 883.185 334.121C884.258 338.486 884.182 343.053 882.965 347.38C881.749 351.707 879.434 355.645 876.244 358.811V358.82L875.943 359.13C875.219 359.851 874.456 360.542 873.676 361.185L872.759 361.941C865.032 368.307 858.929 373.335 851.624 377.24C846.753 379.827 841.571 381.783 836.206 383.061C806.74 390.245 776.818 396.905 747.27 402.858C689.885 414.429 630.988 423.974 572.216 431.226C480.076 442.588 387.326 448.284 294.489 448.282ZM158.257 28.4372C158.077 28.4355 157.897 28.4478 157.718 28.4738C99.5262 37.8928 50.8495 74.9777 24.1737 130.219C18.0128 143.043 13.1243 156.44 9.57844 170.219C-0.548447 210.448 -0.871161 252.52 8.63743 292.899C13.7302 315.063 22.2039 336.31 33.7607 355.895C51.0492 384.784 73.7049 407.55 99.279 421.731C135.893 442.039 175.455 443.46 213.715 444.833C333.378 449.109 453.191 443.894 572.03 429.238C630.765 421.989 689.623 412.451 746.97 400.888C776.499 394.939 806.4 388.284 835.846 381.104C841.082 379.858 846.139 377.95 850.893 375.426C858.05 371.6 864.095 366.619 871.748 360.314L872.665 359.56C873.335 359.006 873.993 358.414 874.623 357.799L874.804 357.609C881.093 351.27 883.539 342.907 881.514 334.665V334.664C880.374 330.018 879.081 325.424 877.67 321.009C853.98 246.263 792.696 193.439 725.174 189.561L723.466 189.472C668.235 186.993 619.903 180.128 575.715 168.481C522.965 154.579 476.914 133.651 438.839 106.281C348.597 41.4187 253.226 14.2316 163.028 27.6545C162.185 27.7998 161.356 28.0148 160.549 28.2971L159.926 28.4714C159.573 28.4872 159.218 28.483 158.865 28.4587C158.656 28.448 158.455 28.4372 158.257 28.4372Z" fill="#909090"/>
<path d="M279.322 146.056C276.824 143.659 274.269 130.294 271.08 128.937C273.464 134.206 271.733 135.601 271.72 141.383C271.75 144.666 271.367 147.94 270.579 151.128H216.555V108.966C216.555 105.178 217.301 101.426 218.75 97.9262C220.2 94.4262 222.325 91.246 225.004 88.5672C227.682 85.8884 230.863 83.7635 234.363 82.3139C237.863 80.8642 241.614 80.1181 245.402 80.1182C246.848 80.1464 248.285 80.3567 249.678 80.7442C254.322 81.9979 258.554 84.4506 261.95 87.8563C265.347 91.2621 267.788 95.501 269.029 100.148C273.147 115.202 279.697 140.26 279.322 146.056Z" fill="#0F0F0F"/>
<path d="M219.725 197.923L219.751 165.06L200.434 166.786L207.251 187.513L204.061 239.609C202.513 239.956 201.1 240.746 199.994 241.883C198.887 243.019 198.136 244.453 197.83 246.009C197.525 247.566 197.679 249.177 198.273 250.648C198.868 252.118 199.877 253.384 201.179 254.29C202.48 255.196 204.017 255.705 205.603 255.753C207.188 255.801 208.753 255.386 210.107 254.56C211.461 253.734 212.545 252.532 213.227 251.101C213.91 249.669 214.161 248.07 213.95 246.498L219.725 197.923Z" fill="#E0E0E0"/>
<path d="M257.741 432.76L265.545 432.759L269.258 402.657H257.739L257.741 432.76Z" fill="#E0E0E0"/>
<path d="M255.098 428.91L267.435 428.174V433.459L279.164 441.56C279.744 441.96 280.18 442.535 280.41 443.2C280.639 443.866 280.65 444.587 280.44 445.259C280.231 445.932 279.812 446.519 279.245 446.936C278.678 447.353 277.992 447.579 277.288 447.578H262.6L260.069 442.35L259.08 447.578H253.542L255.098 428.91Z" fill="#1D1D1D"/>
<path d="M212.615 432.76L220.42 432.759L224.132 402.657H212.614L212.615 432.76Z" fill="#E0E0E0"/>
<path d="M209.973 428.91L222.31 428.174V433.459L234.039 441.56C234.618 441.96 235.055 442.535 235.284 443.2C235.514 443.866 235.525 444.587 235.315 445.259C235.105 445.932 234.687 446.519 234.12 446.936C233.552 447.353 232.867 447.579 232.163 447.578H217.475L214.943 442.35L213.955 447.578H208.417L209.973 428.91Z" fill="#1D1D1D"/>
<path d="M250.791 129.571L234.624 129.888L223.212 141.935L214.062 143.277C209.924 143.884 206.119 145.893 203.283 148.968C200.448 152.044 198.754 155.999 198.485 160.174L200.07 168.88H209.581L215.082 201.183C212.943 206.634 212.797 210.937 217.189 212.627L230.82 238.305L271.08 220.235C273.121 216.725 273.776 213.199 271.689 209.771L274.567 160.321H284.244C284.244 151.072 281.116 143.275 271.925 142.246C268.275 141.851 264.607 141.641 260.936 141.618L250.791 129.571Z" fill="#E6E6E6"/>
<path d="M271.08 220.235C271.08 220.235 231.771 227.209 217.189 212.627C217.189 212.627 215.708 215.14 213.478 219.309C212.836 220.507 211.597 221.319 210.849 222.771C210.169 224.091 208.419 225.713 207.679 227.21C207.083 228.414 208.039 229.987 207.419 231.288C199.951 246.952 191.226 269.047 193.096 283.636C194.303 293.045 196.794 314.938 199.418 338.453C199.623 340.29 197.962 342.65 198.168 344.502C198.363 346.248 200.424 347.485 200.618 349.236C200.747 350.398 199.308 351.583 199.436 352.744C199.578 354.017 201.287 355.266 201.427 356.534C205.022 389.002 208.313 419.315 208.313 419.315H226.699L230.168 350.084L227.333 324.847L233.99 273.809L243.183 322.311L244.366 349.608L254.081 420.583H271.08V351.875L272.348 348.306L271.08 343.728L272.348 338.796L271.08 333.424V220.235Z" fill="#0F0F0F"/>
<path d="M255.754 120.196C253.249 123.523 249.687 125.897 245.652 126.929C241.618 127.96 237.353 127.587 233.559 125.871C229.765 124.154 226.669 121.197 224.78 117.486C222.891 113.775 222.323 109.531 223.168 105.454C224.014 101.376 226.222 97.7085 229.431 95.0541C232.639 92.3997 236.656 90.9171 240.819 90.8505C244.983 90.7838 249.045 92.1371 252.337 94.6875C255.628 97.2379 257.953 100.833 258.929 104.881C258.982 105.101 259.026 105.319 259.069 105.546C259.584 108.084 259.555 110.702 258.984 113.227C258.412 115.752 257.311 118.127 255.754 120.196Z" fill="#E0E0E0"/>
<path d="M251.932 109.739C251.544 107.788 250.56 106.005 249.118 104.636C249.26 106.505 249 108.384 248.357 110.145C243.537 110.572 238.695 109.613 234.402 107.381C231.169 105.187 227.054 105.377 222.261 107.381C222.26 105.05 222.719 102.741 223.611 100.587C224.503 98.433 225.811 96.4759 227.46 94.8274C229.108 93.1788 231.065 91.8712 233.219 90.9792C235.373 90.0871 237.682 89.6281 240.013 89.6284H243.183C247.891 89.6293 252.406 91.4999 255.735 94.8289C259.064 98.158 260.935 102.673 260.936 107.381C258.01 108.43 254.997 109.22 251.932 109.739Z" fill="#0F0F0F"/>
<path d="M113.244 336C141.411 336 164.244 313.167 164.244 285C164.244 256.833 141.411 234 113.244 234C85.0776 234 62.2441 256.833 62.2441 285C62.2441 313.167 85.0776 336 113.244 336Z" fill="#FF9900"/>
<path d="M438.244 102C466.411 102 489.244 79.1665 489.244 51C489.244 22.8335 466.411 0 438.244 0C410.078 0 387.244 22.8335 387.244 51C387.244 79.1665 410.078 102 438.244 102Z" fill="#FF9900"/>
<path d="M843.244 344C871.411 344 894.244 321.167 894.244 293C894.244 264.833 871.411 242 843.244 242C815.078 242 792.244 264.833 792.244 293C792.244 321.167 815.078 344 843.244 344Z" fill="#FF9900"/>
<path d="M530.244 56.5619V172.208C530.245 174.61 529.297 176.915 527.608 178.623C525.918 180.33 523.623 181.302 521.221 181.327C521.188 181.331 521.154 181.332 521.121 181.331H507.661C496.892 181.331 486.563 177.053 478.948 169.438C471.333 161.823 467.055 151.494 467.055 140.725V56.5618C467.055 54.1422 468.016 51.8216 469.727 50.1106C471.438 48.3997 473.758 47.4385 476.178 47.4385H481.632C479.105 54.8091 513.397 57.9122 515.28 47.4385H521.121C523.541 47.4385 525.861 48.3997 527.572 50.1107C529.283 51.8216 530.244 54.1422 530.244 56.5619Z" fill="#909090"/>
<path d="M490.301 38.7908C490.302 38.4738 490.428 38.17 490.652 37.9458C490.876 37.7217 491.18 37.5956 491.497 37.5952H499.627C499.944 37.5961 500.247 37.7225 500.471 37.9466C500.694 38.1707 500.82 38.4743 500.82 38.7908C500.82 39.1074 500.694 39.4109 500.471 39.6351C500.247 39.8592 499.944 39.9856 499.627 39.9865H491.497C491.18 39.9861 490.876 39.86 490.652 39.6359C490.428 39.4118 490.302 39.1078 490.301 38.7908Z" fill="#181818"/>
<path d="M523.914 196H472.498C468.509 195.995 464.684 194.409 461.864 191.588C459.043 188.768 457.456 184.943 457.452 180.954V100.113C457.169 99.91 456.939 99.6429 456.781 99.3335C456.622 99.0242 456.54 98.6815 456.541 98.3339V90.2036C456.54 89.8561 456.622 89.5135 456.781 89.2042C456.939 88.8949 457.169 88.6279 457.452 88.4253V86.2431C457.169 86.0405 456.939 85.7734 456.781 85.4642C456.622 85.1549 456.54 84.8123 456.541 84.4648V76.3339C456.54 75.9864 456.622 75.6438 456.781 75.3346C456.939 75.0253 457.169 74.7583 457.452 74.5556V70.6118C457.103 70.4246 456.812 70.1461 456.609 69.8062C456.407 69.4663 456.3 69.0778 456.301 68.6821V60.5517C456.3 60.156 456.407 59.7673 456.609 59.4274C456.812 59.0874 457.103 58.8088 457.452 58.6215V47.8149C457.456 43.8258 459.043 40.0014 461.864 37.1808C464.685 34.3601 468.509 32.7735 472.498 32.769H523.914C527.903 32.7735 531.727 34.3602 534.548 37.1808C537.369 40.0015 538.955 43.8259 538.96 47.8149V71.3711C539.231 71.5406 539.454 71.7761 539.609 72.0557C539.764 72.3352 539.846 72.6496 539.846 72.9692V88.4721C539.846 88.7918 539.764 89.1062 539.609 89.3858C539.454 89.6655 539.231 89.9011 538.96 90.0707V180.954C538.955 184.943 537.369 188.767 534.548 191.588C531.727 194.409 527.903 195.995 523.914 196ZM472.498 34.769C469.039 34.7729 465.723 36.1486 463.277 38.5944C460.831 41.0401 459.456 44.3561 459.452 47.8149V60.3228L458.49 60.3599C458.44 60.3616 458.392 60.3825 458.357 60.4182C458.322 60.4539 458.302 60.5017 458.301 60.5518V68.682C458.302 68.732 458.322 68.7797 458.357 68.8154C458.392 68.8511 458.44 68.872 458.49 68.874L459.452 68.9106V75.9599L458.691 76.1474C458.649 76.1575 458.611 76.1813 458.584 76.2151C458.557 76.2488 458.541 76.2906 458.54 76.3339V84.4648C458.541 84.5081 458.557 84.5499 458.584 84.5836C458.611 84.6173 458.649 84.6411 458.691 84.6513L459.452 84.8388V89.8295L458.691 90.017C458.649 90.0272 458.611 90.051 458.584 90.0847C458.557 90.1184 458.541 90.1602 458.54 90.2035V98.3339C458.541 98.3773 458.557 98.4192 458.584 98.453C458.611 98.4868 458.649 98.5107 458.691 98.5209L459.452 98.7084V180.954C459.456 184.413 460.831 187.729 463.277 190.175C465.723 192.62 469.039 193.996 472.498 194H523.914C527.373 193.996 530.689 192.62 533.134 190.174C535.58 187.729 536.956 184.413 536.96 180.954V88.3583H537.846V73.0835H536.96V47.8149C536.956 44.3561 535.58 41.0401 533.134 38.5944C530.689 36.1487 527.373 34.773 523.914 34.769H472.498Z" fill="#0B0B0B"/>
<path d="M504.171 39.9865C504.831 39.9865 505.366 39.4512 505.366 38.7908C505.366 38.1305 504.831 37.5952 504.171 37.5952C503.51 37.5952 502.975 38.1305 502.975 38.7908C502.975 39.4512 503.51 39.9865 504.171 39.9865Z" fill="#181818"/>
<path d="M244.075 270.403H110.288C108.388 270.398 106.567 269.641 105.224 268.298C103.88 266.954 103.123 265.134 103.118 263.234V198.045C103.123 196.145 103.88 194.324 105.223 192.981C106.567 191.637 108.387 190.88 110.287 190.875H244.074C245.974 190.88 247.795 191.637 249.138 192.98C250.482 194.323 251.239 196.144 251.244 198.044V263.233C251.239 265.133 250.482 266.954 249.139 268.297C247.796 269.641 245.975 270.398 244.075 270.403Z" fill="#E0E0E0"/>
<path d="M244.075 270.403H110.288C108.388 270.398 106.567 269.641 105.224 268.298C103.88 266.954 103.123 265.134 103.118 263.234V198.045C103.123 196.145 103.88 194.324 105.223 192.981C106.567 191.637 108.387 190.88 110.287 190.875H244.074C245.974 190.88 247.795 191.637 249.138 192.98C250.482 194.323 251.239 196.144 251.244 198.044V263.233C251.239 265.133 250.482 266.954 249.139 268.297C247.796 269.641 245.975 270.398 244.075 270.403ZM110.288 192.875C108.918 192.879 107.605 193.425 106.637 194.394C105.668 195.363 105.122 196.676 105.118 198.046V263.233C105.122 264.603 105.668 265.916 106.637 266.885C107.606 267.853 108.919 268.399 110.289 268.403H244.073C245.443 268.399 246.757 267.853 247.725 266.884C248.694 265.915 249.24 264.602 249.244 263.232V198.045C249.24 196.675 248.694 195.362 247.725 194.393C246.756 193.425 245.443 192.879 244.073 192.875H110.288Z" fill="#181818"/>
<path d="M184.352 260.769C157.966 260.769 130.453 260.517 120.188 260.353C118.837 260.325 117.551 259.771 116.604 258.808C115.657 257.844 115.123 256.549 115.118 255.198V201.236C115.119 200.753 115.311 200.289 115.652 199.946C115.994 199.604 116.457 199.411 116.941 199.409H237.417C237.901 199.41 238.364 199.602 238.707 199.943C239.049 200.285 239.242 200.748 239.244 201.232V237.844C239.222 243.82 236.858 249.55 232.659 253.803C228.461 258.057 222.763 260.495 216.787 260.596C207.22 260.72 195.891 260.769 184.352 260.769Z" fill="#909090"/>
<path d="M230.266 234.48H121.406C120.495 234.477 119.606 234.194 118.861 233.669C118.116 233.144 117.551 232.402 117.242 231.544L104.921 196.978C104.683 196.311 104.609 195.597 104.705 194.896C104.801 194.195 105.063 193.527 105.471 192.948C105.878 192.37 106.418 191.897 107.046 191.57C107.674 191.244 108.371 191.073 109.079 191.071L245.151 190.882C245.798 190.881 246.437 191.022 247.023 191.295C247.61 191.569 248.129 191.967 248.544 192.463C248.96 192.958 249.262 193.539 249.429 194.164C249.596 194.789 249.624 195.443 249.51 196.08L249.615 196.124L249.225 197.036L249.221 197.045L234.326 231.8C233.986 232.596 233.421 233.274 232.699 233.751C231.977 234.227 231.131 234.481 230.266 234.48ZM245.157 192.882L109.083 193.071C108.695 193.072 108.313 193.166 107.969 193.345C107.625 193.523 107.329 193.782 107.106 194.099C106.883 194.416 106.739 194.782 106.687 195.166C106.634 195.55 106.675 195.941 106.805 196.307L119.125 230.872C119.295 231.341 119.605 231.748 120.013 232.036C120.421 232.323 120.908 232.478 121.408 232.48H230.266C230.739 232.48 231.202 232.341 231.597 232.081C231.992 231.82 232.302 231.449 232.487 231.013L247.383 196.257C247.541 195.889 247.605 195.487 247.569 195.088C247.533 194.689 247.399 194.305 247.179 193.97C246.958 193.636 246.658 193.361 246.305 193.171C245.952 192.981 245.558 192.882 245.157 192.882Z" fill="#181818"/>
<path d="M176.978 242.004C181.686 242.004 185.502 238.188 185.502 233.48C185.502 228.773 181.686 224.956 176.978 224.956C172.27 224.956 168.454 228.773 168.454 233.48C168.454 238.188 172.27 242.004 176.978 242.004Z" fill="#E0E0E0"/>
<path d="M498.978 168.004C503.686 168.004 507.502 164.188 507.502 159.48C507.502 154.773 503.686 150.956 498.978 150.956C494.27 150.956 490.454 154.773 490.454 159.48C490.454 164.188 494.27 168.004 498.978 168.004Z" fill="#E0E0E0"/>
<path d="M821.374 283.12L798.604 260.64C797.496 259.537 796.181 258.664 794.734 258.07C793.288 257.476 791.738 257.174 790.174 257.18H790.094C788.519 257.185 786.96 257.502 785.508 258.113C784.056 258.724 782.739 259.617 781.634 260.74C776.543 265.892 773.647 272.818 773.556 280.061C773.465 287.304 776.185 294.301 781.144 299.58C781.384 299.84 781.634 300.09 781.884 300.34C783.269 301.717 784.798 302.94 786.444 303.99C790.946 306.898 796.195 308.437 801.554 308.42H801.724C805.403 308.407 809.042 307.666 812.432 306.238C815.822 304.809 818.896 302.723 821.474 300.1C823.709 297.833 824.953 294.772 824.934 291.589C824.916 288.406 823.635 285.361 821.374 283.12ZM820.054 298.69C815.827 302.949 810.26 305.62 804.293 306.254C798.326 306.888 792.322 305.446 787.294 302.17C785.856 301.218 784.513 300.13 783.284 298.92C778.378 294.074 775.597 287.478 775.554 280.583C775.511 273.687 778.209 267.057 783.054 262.15C783.975 261.211 785.074 260.465 786.286 259.956C787.498 259.446 788.799 259.182 790.114 259.18H790.174C791.476 259.175 792.766 259.427 793.971 259.922C795.175 260.416 796.271 261.142 797.194 262.06L819.964 284.55C821.849 286.414 822.917 288.95 822.934 291.601C822.951 294.252 821.915 296.802 820.054 298.69Z" fill="#909090"/>
<path d="M746.664 209.34L723.894 186.85C721.653 184.626 718.621 183.382 715.464 183.39H715.394C713.816 183.396 712.256 183.715 710.802 184.328C709.348 184.94 708.03 185.835 706.924 186.96C702.715 191.235 699.986 196.745 699.136 202.684C698.287 208.622 699.362 214.677 702.204 219.96L702.214 219.97C703.386 222.131 704.843 224.125 706.544 225.9C706.734 226.12 706.954 226.34 707.174 226.56C712.403 231.75 719.476 234.656 726.844 234.64H727.024C730.703 234.625 734.342 233.88 737.732 232.451C741.122 231.021 744.195 228.934 746.774 226.31C747.881 225.188 748.757 223.86 749.35 222.4C749.944 220.94 750.244 219.378 750.234 217.802C750.224 216.226 749.903 214.668 749.291 213.216C748.678 211.764 747.786 210.447 746.664 209.34ZM745.344 224.91C742.95 227.345 740.098 229.282 736.952 230.608C733.806 231.935 730.428 232.626 727.014 232.64H726.844C721.716 232.638 716.704 231.12 712.437 228.276C708.169 225.433 704.838 221.392 702.862 216.66C700.886 211.928 700.353 206.718 701.33 201.684C702.307 196.651 704.751 192.018 708.354 188.37C710.218 186.485 712.754 185.417 715.405 185.4C718.056 185.383 720.606 186.419 722.494 188.28L745.264 210.76C747.148 212.627 748.214 215.166 748.229 217.818C748.244 220.471 747.207 223.021 745.344 224.91Z" fill="#909090"/>
<path d="M822.829 290.188L797.726 265.394C796.08 263.772 793.858 262.869 791.547 262.883C789.236 262.898 787.025 263.828 785.399 265.47C783.365 267.525 781.756 269.961 780.664 272.638C779.572 275.315 779.018 278.181 779.035 281.072C779.051 283.963 779.637 286.822 780.759 289.487C781.881 292.151 783.518 294.568 785.575 296.6C787.632 298.632 790.069 300.238 792.747 301.327C795.425 302.416 798.292 302.966 801.183 302.947C804.074 302.927 806.933 302.338 809.596 301.213C812.259 300.088 814.675 298.449 816.704 296.389L822.829 290.188Z" fill="#909090"/>
<path d="M748.124 216.404L723.02 191.61C721.374 189.988 719.151 189.085 716.84 189.099C714.529 189.114 712.318 190.044 710.692 191.686C708.658 193.741 707.049 196.177 705.957 198.854C704.865 201.531 704.312 204.397 704.328 207.288C704.344 210.179 704.93 213.038 706.053 215.703C707.175 218.367 708.812 220.784 710.869 222.816C712.926 224.848 715.362 226.454 718.041 227.543C720.719 228.632 723.585 229.182 726.476 229.163C729.367 229.143 732.226 228.554 734.89 227.429C737.553 226.304 739.968 224.665 741.997 222.605L748.124 216.404Z" fill="#909090"/>
<path d="M795.244 305.63L794.644 307.21C791.824 306.14 789.091 305.067 786.444 303.99C739.564 284.86 717.184 262.47 702.214 219.97L702.204 219.96C701.494 217.96 700.804 215.913 700.134 213.82L701.714 213.31C702.243 215.323 703.015 217.264 704.014 219.09C704.834 221.42 705.678 223.69 706.544 225.9C720.614 261.77 741.364 282.27 781.144 299.58C783.144 300.45 785.194 301.313 787.294 302.17C789.733 303.759 792.42 304.928 795.244 305.63Z" fill="#909090"/>
<path d="M723.477 232.82L722.071 234.243L774.009 285.541L775.415 284.117L723.477 232.82Z" fill="#909090"/>
<path d="M283.76 190.315L283.787 157.452L264.469 159.178L271.287 179.905L246.539 217.419C244.992 217.766 243.579 218.556 242.473 219.692C241.366 220.829 240.615 222.263 240.309 223.819C240.004 225.375 240.158 226.987 240.752 228.457C241.347 229.927 242.356 231.193 243.658 232.099C244.959 233.006 246.496 233.514 248.082 233.562C249.667 233.61 251.232 233.196 252.586 232.37C253.94 231.544 255.024 230.342 255.706 228.91C256.389 227.478 256.64 225.879 256.429 224.307L283.76 190.315Z" fill="#E0E0E0"/>
</g>
<defs>
<clipPath id="clip0_172_103">
<rect width="895" height="449" fill="white"/>
</clipPath>
</defs>
</svg>
