<svg width="752" height="556" viewBox="0 0 752 556" fill="none" xmlns="http://www.w3.org/2000/svg">
<path d="M533.74 407.697H128.805C125.197 407.693 121.738 406.258 119.186 403.707C116.635 401.155 115.2 397.696 115.196 394.088V64.3652C115.2 60.7572 116.635 57.2981 119.186 54.7468C121.738 52.1956 125.197 50.7604 128.805 50.7562H533.74C537.348 50.7604 540.808 52.1955 543.359 54.7468C545.91 57.2981 547.345 60.7572 547.349 64.3652V394.088C547.345 397.696 545.91 401.155 543.359 403.707C540.808 406.258 537.348 407.693 533.74 407.697Z" fill="#E6E6E6"/>
<path d="M137.986 60.4429C134.511 60.4469 131.179 61.8294 128.721 64.287C126.264 66.7446 124.881 70.0767 124.877 73.5523V384.909C124.882 388.385 126.264 391.716 128.721 394.174C131.179 396.631 134.511 398.014 137.986 398.018H415.149C447.632 397.981 478.775 385.061 501.744 362.091C524.713 339.122 537.633 307.98 537.67 275.497V73.5523C537.666 70.0767 536.284 66.7446 533.826 64.287C531.369 61.8294 528.037 60.4469 524.561 60.4429L137.986 60.4429Z" fill="#F9F9F9"/>
<path d="M459.9 200.474H386.476C384.944 200.472 383.476 199.863 382.393 198.78C381.31 197.697 380.701 196.229 380.7 194.698V158.153C380.701 156.622 381.31 155.154 382.393 154.071C383.476 152.988 384.944 152.379 386.476 152.377H459.9C461.431 152.379 462.9 152.988 463.982 154.071C465.065 155.154 465.674 156.622 465.676 158.153C470.219 171.085 470.865 183.374 465.676 194.698C465.674 196.229 465.065 197.697 463.982 198.78C462.9 199.863 461.431 200.472 459.9 200.474Z" fill="#E6E6E6"/>
<path d="M451.201 196.942H388.82C387.519 196.941 386.271 196.423 385.352 195.503C384.432 194.583 383.914 193.336 383.913 192.035V160.986C383.914 159.685 384.432 158.438 385.352 157.518C386.271 156.598 387.519 156.08 388.82 156.079H451.201C452.503 156.08 453.75 156.598 454.67 157.518C455.59 158.438 456.107 159.685 456.109 160.986C460.319 172.044 460.996 182.507 456.109 192.035C456.107 193.336 455.59 194.583 454.67 195.503C453.75 196.423 452.503 196.941 451.201 196.942Z" fill="#F9F9F9"/>
<path d="M447.837 219.617H398.375C396.92 219.619 395.524 219.043 394.494 218.016C393.463 216.989 392.883 215.595 392.88 214.14C392.877 212.685 393.452 211.288 394.479 210.257C395.506 209.226 396.9 208.645 398.355 208.642H447.837C449.291 208.645 450.684 209.224 451.711 210.253C452.738 211.282 453.314 212.676 453.314 214.129C453.314 215.583 452.738 216.977 451.711 218.006C450.684 219.035 449.291 219.614 447.837 219.617Z" fill="#E6E6E6"/>
<path d="M414.581 164.463C414.012 164.465 413.467 164.692 413.065 165.094C412.663 165.497 412.437 166.042 412.436 166.611V189.872C412.435 190.248 412.534 190.617 412.721 190.942C412.909 191.268 413.178 191.539 413.503 191.727C413.828 191.916 414.196 192.016 414.572 192.018C414.948 192.019 415.317 191.922 415.643 191.736L436.174 180.029C436.504 179.841 436.779 179.569 436.969 179.241C437.159 178.912 437.259 178.539 437.258 178.16C437.257 177.78 437.155 177.407 436.963 177.08C436.771 176.752 436.495 176.482 436.164 176.296L415.634 164.741C415.313 164.559 414.95 164.463 414.581 164.463Z" fill="#E6E6E6"/>
<path d="M714.114 511.364C712.982 509.924 711.444 508.857 709.699 508.299C707.954 507.741 706.082 507.719 704.325 508.235L703.94 508.35L700.493 521.808C699.977 519.802 698.872 515.274 698.175 510.842L698.115 510.475L697.773 510.626C694.169 512.219 690.781 514.261 687.689 516.703C682.212 521.097 677.757 526.631 674.634 532.92C671.511 539.209 669.795 546.103 669.606 553.122L669.6 553.38L669.594 553.543L670.05 553.38L679.846 549.879C684.182 550.261 688.55 549.67 692.629 548.149C696.708 546.628 700.396 544.215 703.424 541.087C707.382 536.913 710.096 531.544 712.721 526.349C713.49 524.835 714.276 523.274 715.081 521.772C715.979 520.14 716.367 518.275 716.194 516.42C716.022 514.565 715.297 512.804 714.114 511.364Z" fill="#F2F2F2"/>
<path d="M463.97 168.146C464.167 169.165 464.584 170.128 465.194 170.968C465.803 171.808 466.589 172.505 467.496 173.008C468.403 173.511 469.41 173.81 470.445 173.882C471.48 173.954 472.518 173.799 473.487 173.426L502.762 207.482L506.468 194.91L477.445 163.753C476.711 162.167 475.422 160.906 473.82 160.207C472.219 159.509 470.417 159.422 468.756 159.964C467.095 160.506 465.69 161.638 464.808 163.146C463.926 164.654 463.628 166.433 463.97 168.146Z" fill="#E6E6E6"/>
<path d="M581.955 545.239H572.267L567.658 507.87H581.957L581.955 545.239Z" fill="#BBBBBB"/>
<path d="M581.697 542.075L571.353 537.867L571.056 537.746L565.345 542.075C562.121 542.075 559.028 543.356 556.748 545.637C554.468 547.917 553.187 551.009 553.186 554.234V554.629H584.423V542.075H581.697Z" fill="#909090"/>
<path d="M651.067 545.239H641.379L636.77 507.87H651.069L651.067 545.239Z" fill="#BBBBBB"/>
<path d="M650.808 542.075L640.464 537.867L640.168 537.746L634.457 542.075C631.232 542.075 628.14 543.356 625.86 545.637C623.58 547.917 622.298 551.009 622.298 554.234V554.629H653.535V542.075H650.808Z" fill="#909090"/>
<path d="M628.202 322.089C628.202 322.089 640.353 334.731 640.353 345.119C640.353 355.506 637.315 369.769 640.353 372.89C643.391 376.012 647.188 379.809 642.632 384.366C638.075 388.923 635.796 391.201 638.834 394.239C641.872 397.277 640.353 450.44 640.353 450.44L656.302 521.831H636.209L610.734 450.44L603.898 391.201L581.793 448.162L584.234 522.443L563.228 521.831L554.533 442.845C554.533 442.845 567.444 367.711 565.165 365.786C562.887 363.86 565.165 359.973 565.165 359.973L571.241 331.203L628.202 322.089Z" fill="#909090"/>
<path d="M604.41 232.456C604.41 232.456 608.542 216.175 589.507 211.507C570.471 206.839 516.057 200.841 516.057 200.841L488.558 171.661L479.24 185.194L510.067 223.502L583.11 238.505L604.41 232.456Z" fill="#0F0F0F"/>
<path d="M483.769 184.196C484.623 183.09 485.291 181.852 485.748 180.531L489.691 170.84L488.668 170.798C487.251 170.531 485.794 170.567 484.392 170.903C482.99 171.239 481.676 171.867 480.534 172.747C479.392 173.626 478.448 174.737 477.766 176.007C477.083 177.276 476.676 178.676 476.572 180.113C476.443 181.357 476.666 182.612 477.217 183.734C477.497 184.291 477.905 184.773 478.408 185.142C478.91 185.51 479.493 185.754 480.108 185.854C480.806 185.892 481.504 185.761 482.141 185.472C482.778 185.183 483.336 184.746 483.769 184.196Z" fill="#E6E6E6"/>
<path d="M567.363 335.083L565.085 351.599C565.085 351.599 569.642 356.493 571.92 355.881C574.199 355.27 582.553 351.709 582.553 351.709C582.553 351.709 592.426 357.105 597.742 357.717C603.059 358.328 631.159 354.658 631.919 352.823C632.678 350.988 641.505 343.804 641.505 343.804L637.994 322.849L567.363 335.083Z" fill="#E6E6E6"/>
<path d="M641.359 277.303C641.359 277.303 639.43 293.229 640.948 294.695C642.467 296.153 639.43 305.381 636.392 311.457C633.354 317.532 638.67 318.292 638.67 322.849C638.67 327.406 640.948 344.114 640.948 344.114C640.948 344.114 617.405 345.633 613.607 341.836C609.81 338.038 603.734 341.076 595.38 349.43C587.026 357.785 568.882 350.949 565.085 347.152C561.287 343.355 568.039 329.684 570.317 327.033C572.596 324.383 568.123 327.451 565.844 319.051C563.566 310.652 568.039 311.457 571.836 307.659C575.634 303.862 571.836 297.027 568.798 290.191C565.761 283.356 568.039 232.472 568.039 220.32C568.039 208.168 584.747 206.649 584.747 206.649L591.362 198.333L596.223 192.219L605.747 191.84L605.997 191.832L615.21 191.46L619.683 196.67L629.556 208.168L640.948 210.447C650.062 213.485 647.784 232.472 647.784 232.472L641.359 277.303Z" fill="#0F0F0F"/>
<path d="M605.277 188.545C616.059 188.545 624.8 179.805 624.8 169.023C624.8 158.241 616.059 149.5 605.277 149.5C594.495 149.5 585.755 158.241 585.755 169.023C585.755 179.805 594.495 188.545 605.277 188.545Z" fill="#E6E6E6"/>
<path d="M627.913 162.455C622.543 159.162 623.232 150.552 618.058 147.545C615.486 146.063 612.595 145.224 609.629 145.099C606.664 144.975 603.712 145.568 601.025 146.83C597.381 145.271 593.016 146.515 590.1 149.33C587.185 152.146 585.607 156.299 585.142 160.475C584.806 164.672 585.107 168.895 586.036 173.001C586.325 171.351 586.615 169.702 586.904 168.052L602.295 164.688C600.932 165.912 599.57 167.136 598.207 168.36C605.177 169.947 612.491 168.803 618.644 165.164C625.344 168.168 624.129 174.913 618.248 183.865C620.527 187.663 634.031 166.208 627.913 162.455Z" fill="#1D1D1D"/>
<path d="M619.683 196.67C619.639 196.705 619.594 196.738 619.547 196.769C617.938 197.728 616.096 198.227 614.223 198.212C611.771 198.416 609.337 197.653 607.441 196.085C606.446 195.143 602.489 197.133 599.892 198.235C597.167 199.364 594.112 199.399 591.362 198.333L596.223 192.219L604.234 190.443H606.234L615.21 191.46L619.683 196.67Z" fill="#E6E6E6"/>
<path d="M750.766 555.561L479.016 555.868C478.86 555.869 478.705 555.839 478.56 555.78C478.415 555.721 478.284 555.634 478.173 555.524C478.061 555.414 477.973 555.283 477.912 555.139C477.852 554.995 477.82 554.84 477.819 554.684C477.819 554.527 477.849 554.372 477.908 554.228C477.967 554.083 478.054 553.951 478.164 553.84C478.274 553.729 478.405 553.64 478.549 553.58C478.693 553.519 478.848 553.488 479.004 553.487H479.016L750.766 553.18C751.081 553.181 751.382 553.307 751.604 553.53C751.826 553.753 751.951 554.055 751.951 554.37C751.951 554.685 751.826 554.987 751.604 555.21C751.382 555.433 751.081 555.559 750.766 555.561Z" fill="#E0E0E0"/>
<path d="M425.383 155.694H423.383V12.651H502.04V14.651H425.383V155.694Z" fill="#0F0F0F"/>
<path d="M563.212 0H510.212C506.765 0 503.458 1.36964 501.02 3.80762C498.582 6.24559 497.212 9.55219 497.212 13C497.212 16.4478 498.582 19.7544 501.02 22.1924C503.458 24.6304 506.765 26 510.212 26H563.212C566.66 26 569.967 24.6304 572.405 22.1924C574.843 19.7544 576.212 16.4478 576.212 13C576.212 9.55219 574.843 6.24559 572.405 3.80762C569.967 1.36964 566.66 0 563.212 0Z" fill="#909090"/>
<path d="M423.223 168.78C429.82 168.78 435.169 163.432 435.169 156.834C435.169 150.237 429.82 144.889 423.223 144.889C416.625 144.889 411.277 150.237 411.277 156.834C411.277 163.432 416.625 168.78 423.223 168.78Z" fill="#909090"/>
<path d="M279.272 201.722L346.72 186.114C348.602 185.679 347.82 182.782 345.938 183.217L278.489 198.826C276.608 199.261 277.389 202.158 279.272 201.722Z" fill="#F2F2F2"/>
<path d="M333.388 170.14L361.443 183.045C362.4 183.376 363.297 183.862 364.098 184.483C364.872 185.241 364.308 185.971 363.676 186.631C361.788 188.395 359.794 190.041 357.705 191.56L345.753 201.277C344.252 202.497 346.369 204.626 347.856 203.417L363.471 190.722C364.946 189.523 366.741 188.3 367.333 186.39C368.578 182.377 363.665 180.782 360.934 179.526L334.916 167.557C333.176 166.757 331.635 169.334 333.388 170.14Z" fill="#F2F2F2"/>
<path d="M720.541 268.384C715.543 264.995 709.471 263.736 703.536 263.309C696.79 262.942 690.029 262.95 683.285 263.332C676.278 263.61 669.286 264.117 662.308 264.854C655.34 265.591 648.401 266.557 641.491 267.752C635.305 268.715 629.183 270.055 623.16 271.765C617.459 273.342 612.089 275.936 607.308 279.42C603.112 282.576 599.884 286.846 597.993 291.745C596.137 296.339 595.821 301.411 597.094 306.2C597.772 308.527 598.933 310.684 600.501 312.531C602.314 314.558 604.461 316.258 606.85 317.557C611.808 320.388 617.425 322.091 621.91 325.715C623.092 326.663 624.17 327.735 625.125 328.912C625.773 329.823 626.67 330.528 627.708 330.944C628.691 331.287 629.754 331.332 630.763 331.072C631.772 330.813 632.681 330.26 633.376 329.484C634.274 328.255 635.023 326.924 635.607 325.518L637.972 320.954C638.131 320.555 638.329 320.172 638.564 319.813C638.741 319.602 638.424 319.817 638.485 319.762C638.518 319.731 638.587 319.732 638.625 319.708C638.82 319.61 639.025 319.532 639.235 319.473C641.424 318.639 643.622 317.831 645.83 317.049C653.979 314.145 662.226 311.468 670.604 309.299C674.915 308.143 679.287 307.228 683.7 306.559C689.416 305.745 695.218 305.84 700.96 305.283C707.142 304.684 713.52 303.433 718.822 300.029C723.205 297.365 726.582 293.324 728.424 288.536C729.222 286.255 729.496 283.823 729.224 281.421C728.536 275.986 724.985 271.396 720.541 268.384Z" fill="#E6E6E6"/>
<path d="M710.312 271.437C705.795 268.375 700.308 267.237 694.945 266.851C688.849 266.519 682.739 266.527 676.644 266.873C670.312 267.124 663.994 267.582 657.688 268.247C651.391 268.914 645.12 269.787 638.876 270.867C633.286 271.737 627.754 272.948 622.311 274.493C617.159 275.918 612.306 278.262 607.986 281.41C604.194 284.262 601.277 288.121 599.568 292.548C597.891 296.7 597.605 301.284 598.755 305.611C599.368 307.713 600.418 309.663 601.835 311.332C603.473 313.163 605.413 314.7 607.572 315.874C612.052 318.433 617.128 319.971 621.181 323.246C622.25 324.103 623.224 325.071 624.087 326.135C624.673 326.958 625.483 327.595 626.421 327.971C627.309 328.282 628.27 328.322 629.181 328.087C630.093 327.853 630.915 327.353 631.543 326.652C632.355 325.542 633.031 324.339 633.559 323.068L635.697 318.944C635.84 318.583 636.019 318.237 636.231 317.913C636.391 317.722 636.105 317.916 636.16 317.866C636.19 317.839 636.252 317.839 636.286 317.817C636.463 317.729 636.648 317.658 636.838 317.606C638.815 316.852 640.802 316.121 642.797 315.415C650.161 312.79 657.614 310.371 665.185 308.412C669.08 307.367 673.032 306.54 677.019 305.936C682.185 305.2 687.428 305.285 692.617 304.782C698.203 304.241 703.967 303.11 708.758 300.034C712.719 297.627 715.77 293.975 717.435 289.648C718.156 287.587 718.404 285.389 718.159 283.218C717.536 278.307 714.327 274.16 710.312 271.437Z" fill="#F9F9F9"/>
<path d="M700.852 276.967L627.251 290.542C627.04 290.582 626.824 290.58 626.614 290.536C626.405 290.493 626.205 290.408 626.028 290.287C625.851 290.167 625.7 290.012 625.583 289.833C625.465 289.654 625.385 289.453 625.345 289.242C625.306 289.032 625.308 288.815 625.352 288.606C625.397 288.396 625.482 288.197 625.603 288.02C625.724 287.844 625.879 287.693 626.059 287.576C626.239 287.459 626.44 287.379 626.651 287.341L700.261 273.764C700.472 273.725 700.687 273.728 700.897 273.773C701.106 273.818 701.304 273.903 701.48 274.024C701.656 274.145 701.807 274.3 701.923 274.48C702.039 274.659 702.119 274.86 702.158 275.07C702.197 275.28 702.194 275.496 702.149 275.705C702.105 275.914 702.019 276.113 701.898 276.289C701.777 276.465 701.622 276.616 701.442 276.732C701.263 276.848 701.062 276.928 700.852 276.967Z" fill="#E6E6E6"/>
<path d="M702.665 286.796L629.064 300.371C628.854 300.411 628.637 300.409 628.428 300.366C628.218 300.322 628.019 300.238 627.842 300.117C627.665 299.996 627.513 299.842 627.396 299.662C627.279 299.483 627.198 299.282 627.159 299.072C627.119 298.861 627.122 298.645 627.166 298.435C627.21 298.226 627.295 298.027 627.417 297.85C627.538 297.673 627.693 297.522 627.872 297.406C628.052 297.289 628.253 297.209 628.464 297.17L702.074 283.594C702.285 283.555 702.501 283.558 702.71 283.602C702.919 283.647 703.117 283.732 703.293 283.854C703.469 283.975 703.62 284.13 703.736 284.309C703.853 284.489 703.932 284.689 703.971 284.9C704.01 285.11 704.007 285.326 703.962 285.535C703.918 285.744 703.832 285.942 703.711 286.118C703.59 286.295 703.435 286.445 703.256 286.561C703.076 286.678 702.876 286.758 702.665 286.796Z" fill="#E6E6E6"/>
<path d="M639.454 308.619L630.877 310.201C630.453 310.277 630.016 310.183 629.661 309.938C629.307 309.693 629.064 309.317 628.986 308.893C628.908 308.47 629.001 308.032 629.245 307.677C629.488 307.322 629.863 307.077 630.286 306.998L638.863 305.416C639.288 305.339 639.725 305.433 640.08 305.678C640.435 305.923 640.678 306.299 640.756 306.723C640.834 307.147 640.741 307.584 640.497 307.94C640.253 308.295 639.878 308.539 639.454 308.619Z" fill="#E6E6E6"/>
<path d="M633.24 349.483C636.999 348.79 639.485 345.18 638.791 341.421C638.098 337.662 634.488 335.177 630.729 335.87C626.97 336.563 624.485 340.173 625.178 343.932C625.872 347.691 629.481 350.176 633.24 349.483Z" fill="#E6E6E6"/>
<path d="M252.341 198.622H189.475C186.556 198.619 183.758 197.458 181.695 195.395C179.631 193.331 178.47 190.533 178.467 187.615V146.182C178.47 143.264 179.631 140.466 181.695 138.402C183.758 136.339 186.556 135.178 189.475 135.174H252.341C255.259 135.178 258.057 136.339 260.121 138.402C262.184 140.466 263.345 143.264 263.349 146.182V187.615C263.345 190.533 262.184 193.331 260.121 195.395C258.057 197.458 255.259 198.619 252.341 198.622Z" fill="#E6E6E6"/>
<path d="M245.433 196.39H190.719C188.179 196.387 185.744 195.377 183.948 193.581C182.152 191.785 181.142 189.35 181.139 186.81V150.751C181.142 148.211 182.152 145.776 183.948 143.98C185.744 142.184 188.179 141.173 190.719 141.17H245.433C247.973 141.173 250.408 142.184 252.204 143.98C254 145.776 255.01 148.211 255.013 150.751V186.81C255.01 189.35 254 191.785 252.204 193.581C250.408 195.377 247.973 196.387 245.433 196.39Z" fill="#F9F9F9"/>
<path d="M261.196 235.951H180.53C180.032 235.95 179.554 235.751 179.202 235.398C178.85 235.045 178.652 234.567 178.652 234.069C178.652 233.57 178.85 233.092 179.202 232.739C179.554 232.386 180.032 232.187 180.53 232.186H261.196C261.694 232.187 262.172 232.386 262.524 232.739C262.876 233.092 263.074 233.57 263.074 234.069C263.074 234.567 262.876 235.045 262.524 235.398C262.172 235.751 261.694 235.95 261.196 235.951Z" fill="#E6E6E6"/>
<path d="M261.196 225.195H180.53C180.032 225.194 179.554 224.995 179.202 224.643C178.85 224.29 178.652 223.812 178.652 223.313C178.652 222.815 178.85 222.337 179.202 221.984C179.554 221.631 180.032 221.432 180.53 221.431H261.196C261.694 221.432 262.172 221.631 262.524 221.984C262.876 222.337 263.074 222.815 263.074 223.313C263.074 223.812 262.876 224.29 262.524 224.643C262.172 224.995 261.694 225.194 261.196 225.195Z" fill="#E6E6E6"/>
<path d="M261.196 246.706H180.53C180.031 246.706 179.552 246.508 179.199 246.155C178.846 245.802 178.648 245.323 178.648 244.824C178.648 244.325 178.846 243.846 179.199 243.493C179.552 243.14 180.031 242.942 180.53 242.942H261.196C261.695 242.942 262.174 243.14 262.527 243.493C262.88 243.846 263.078 244.325 263.078 244.824C263.078 245.323 262.88 245.802 262.527 246.155C262.174 246.508 261.695 246.706 261.196 246.706Z" fill="#E6E6E6"/>
<path d="M261.196 257.462H180.53C180.031 257.462 179.552 257.263 179.199 256.91C178.846 256.557 178.648 256.079 178.648 255.579C178.648 255.08 178.846 254.601 179.199 254.248C179.552 253.895 180.031 253.697 180.53 253.697H261.196C261.695 253.697 262.174 253.895 262.527 254.248C262.88 254.601 263.078 255.08 263.078 255.579C263.078 256.079 262.88 256.557 262.527 256.91C262.174 257.263 261.695 257.462 261.196 257.462Z" fill="#E6E6E6"/>
<path d="M261.196 268.217H180.53C180.031 268.217 179.552 268.019 179.199 267.666C178.846 267.313 178.648 266.834 178.648 266.335C178.648 265.836 178.846 265.357 179.199 265.004C179.552 264.651 180.031 264.453 180.53 264.453H261.196C261.695 264.453 262.174 264.651 262.527 265.004C262.88 265.357 263.078 265.836 263.078 266.335C263.078 266.834 262.88 267.313 262.527 267.666C262.174 268.019 261.695 268.217 261.196 268.217Z" fill="#E6E6E6"/>
<path d="M261.196 278.972H180.53C180.032 278.971 179.554 278.772 179.202 278.42C178.85 278.067 178.652 277.589 178.652 277.09C178.652 276.592 178.85 276.114 179.202 275.761C179.554 275.408 180.032 275.209 180.53 275.208H261.196C261.694 275.209 262.172 275.408 262.524 275.761C262.876 276.114 263.074 276.592 263.074 277.09C263.074 277.589 262.876 278.067 262.524 278.42C262.172 278.772 261.694 278.971 261.196 278.972Z" fill="#E6E6E6"/>
<path d="M216.83 254.306H218.83V331.349H74.1729V329.349H216.83V254.306Z" fill="#0F0F0F"/>
<path d="M13 344H66C69.4478 344 72.7544 342.63 75.1924 340.192C77.6304 337.754 79 334.448 79 331C79 327.552 77.6304 324.246 75.1924 321.808C72.7544 319.37 69.4478 318 66 318H13C9.55219 318 6.24559 319.37 3.80762 321.808C1.36964 324.246 0 327.552 0 331C0 334.448 1.36964 337.754 3.80762 340.192C6.24559 342.63 9.55219 344 13 344Z" fill="#909090"/>
<path d="M219.223 260.111C225.82 260.111 231.169 254.763 231.169 248.166C231.169 241.568 225.82 236.22 219.223 236.22C212.625 236.22 207.277 241.568 207.277 248.166C207.277 254.763 212.625 260.111 219.223 260.111Z" fill="#909090"/>
<path d="M280.968 251.485C298.507 255.213 294.045 255.94 311.584 259.668L326.686 262.878C328.576 263.279 329.093 260.324 327.203 259.922C309.664 256.194 314.126 255.467 296.587 251.739L281.484 248.529C279.595 248.128 279.078 251.083 280.968 251.485Z" fill="#F2F2F2"/>
<path d="M321.364 242.763L341.324 266.325C342.052 267.03 342.659 267.85 343.122 268.751C343.503 269.766 342.683 270.188 341.831 270.519C339.375 271.318 336.871 271.966 334.335 272.459L319.394 276.207C317.519 276.678 318.536 279.502 320.394 279.036L339.914 274.139C341.758 273.677 343.902 273.328 345.247 271.848C348.072 268.739 344.295 265.215 342.353 262.921L323.841 241.069C322.603 239.608 320.117 241.291 321.364 242.763Z" fill="#F2F2F2"/>
<path d="M384.653 345.475C399.995 345.475 412.433 333.037 412.433 317.695C412.433 302.352 399.995 289.915 384.653 289.915C369.31 289.915 356.873 302.352 356.873 317.695C356.873 333.037 369.31 345.475 384.653 345.475Z" fill="#E6E6E6"/>
<path d="M381.945 341.933C393.608 341.933 403.064 332.478 403.064 320.814C403.064 309.15 393.608 299.694 381.945 299.694C370.281 299.694 360.825 309.15 360.825 320.814C360.825 332.478 370.281 341.933 381.945 341.933Z" fill="#F9F9F9"/>
<path d="M378.155 335.272C377.676 335.272 377.203 335.161 376.773 334.946C376.344 334.731 375.971 334.42 375.684 334.036L368.105 323.931C367.861 323.606 367.684 323.237 367.583 322.844C367.482 322.451 367.459 322.042 367.517 321.64C367.574 321.238 367.71 320.852 367.916 320.503C368.123 320.153 368.396 319.848 368.721 319.604C369.045 319.361 369.415 319.183 369.808 319.083C370.201 318.982 370.61 318.959 371.011 319.016C371.413 319.074 371.8 319.209 372.149 319.416C372.498 319.623 372.803 319.896 373.047 320.22L373.049 320.223L378.007 326.833L390.742 307.732C390.967 307.393 391.256 307.103 391.593 306.876C391.931 306.65 392.309 306.492 392.707 306.413C393.106 306.333 393.516 306.332 393.914 306.411C394.313 306.489 394.692 306.646 395.03 306.871C395.368 307.096 395.658 307.386 395.884 307.724C396.11 308.061 396.267 308.44 396.346 308.838C396.425 309.237 396.426 309.647 396.346 310.045C396.267 310.443 396.11 310.822 395.884 311.16L380.727 333.896C380.453 334.307 380.084 334.647 379.651 334.886C379.219 335.125 378.735 335.258 378.241 335.271C378.213 335.272 378.184 335.272 378.155 335.272Z" fill="#E6E6E6"/>
<path d="M644.051 346.313C644.945 345.787 645.713 345.071 646.301 344.216C646.889 343.361 647.283 342.388 647.454 341.364C647.625 340.341 647.569 339.292 647.291 338.293C647.013 337.293 646.519 336.366 645.844 335.578L668.15 296.6L655.062 297.311L635.404 335.083C634.155 336.305 633.398 337.942 633.275 339.684C633.153 341.427 633.674 343.154 634.74 344.538C635.805 345.923 637.342 346.868 639.058 347.195C640.774 347.522 642.55 347.208 644.051 346.313Z" fill="#E6E6E6"/>
<path d="M618.927 209.687C618.927 209.687 642.551 202.093 648.627 220.32C654.703 238.547 675.128 287.913 675.128 287.913L653.184 332.722L643.311 322.089L653.862 290.951L623.484 245.383L618.927 209.687Z" fill="#0F0F0F"/>
<path d="M653.936 328.146C653.225 326.943 652.323 325.863 651.265 324.95L643.727 317.695L643.308 318.63C642.536 319.847 642.029 321.213 641.821 322.639C641.613 324.066 641.709 325.52 642.103 326.907C642.497 328.293 643.179 329.581 644.105 330.686C645.031 331.79 646.18 332.687 647.476 333.316C648.583 333.898 649.832 334.155 651.078 334.06C651.699 334.006 652.298 333.806 652.827 333.476C653.355 333.146 653.798 332.695 654.119 332.161C654.413 331.526 654.549 330.83 654.517 330.131C654.486 329.432 654.286 328.752 653.936 328.146Z" fill="#E6E6E6"/>
<path d="M384.412 355.068H382.412V432.111H450.069V430.111H384.412V355.068Z" fill="#0F0F0F"/>
<path d="M524.242 431.762C524.238 428.315 522.868 425.011 520.43 422.573C517.993 420.136 514.689 418.766 511.242 418.762H458.242C454.794 418.762 451.487 420.132 449.049 422.57C446.611 425.008 445.242 428.314 445.242 431.762C445.242 435.21 446.611 438.517 449.049 440.955C451.487 443.393 454.794 444.762 458.242 444.762H511.242C514.689 444.759 517.993 443.388 520.43 440.951C522.868 438.514 524.238 435.209 524.242 431.762Z" fill="#909090"/>
<path d="M382.019 360.874C388.617 360.874 393.965 355.525 393.965 348.928C393.965 342.33 388.617 336.982 382.019 336.982C375.422 336.982 370.073 342.33 370.073 348.928C370.073 355.525 375.422 360.874 382.019 360.874Z" fill="#909090"/>
</svg>
