<svg width="821" height="646" viewBox="0 0 821 646" fill="none" xmlns="http://www.w3.org/2000/svg">
<path d="M215.144 291.444C213.338 291.444 211.87 292.912 211.87 294.718V320.909C211.87 322.715 213.338 324.183 215.144 324.183C216.949 324.183 218.418 322.715 218.418 320.909V294.718C218.418 292.912 216.949 291.444 215.144 291.444Z" fill="#909090"/>
<path d="M587.537 0H293.04C259.644 0 232.571 27.0729 232.571 60.4691V580.869C232.571 614.265 259.644 641.338 293.04 641.338H587.537C620.934 641.338 648.006 614.265 648.006 580.869V60.4691C648.006 27.0729 620.934 0 587.537 0Z" fill="#0F0F0F"/>
<path d="M587.538 645.769H293.04C258.908 645.769 231.139 618.001 231.139 583.869V63.4694C231.139 29.3373 258.908 1.56836 293.04 1.56836H587.538C621.67 1.56836 649.439 29.3373 649.439 63.4694V583.869C649.439 618.001 621.67 645.769 587.538 645.769ZM293.04 4.43217C260.487 4.43217 234.003 30.916 234.003 63.4694V583.869C234.003 616.422 260.487 642.906 293.04 642.906H587.538C620.091 642.906 646.575 616.422 646.575 583.869V63.4694C646.575 30.916 620.091 4.43217 587.538 4.43217H293.04Z" fill="#909090"/>
<path d="M608.87 126.804H490.497C485.477 126.804 481.392 122.719 481.392 117.699C481.392 112.678 485.477 108.593 490.497 108.593H608.87C613.89 108.593 617.975 112.678 617.975 117.699C617.975 122.719 613.89 126.804 608.87 126.804Z" fill="#E6E6E6"/>
<path d="M497.821 198.41H382.758C379.857 198.41 377.496 196.049 377.496 193.149C377.496 190.248 379.857 187.888 382.758 187.888H497.821C500.722 187.888 503.081 190.248 503.081 193.149C503.081 196.049 500.722 198.41 497.821 198.41Z" fill="#F9F9F9"/>
<path d="M335.324 22.5569H269.364C269.193 22.5569 269.054 22.6958 269.054 22.8671V30.7827C269.054 30.954 269.193 31.0929 269.364 31.0929H335.324C335.496 31.0929 335.635 30.954 335.635 30.7827V22.8671C335.635 22.6958 335.496 22.5569 335.324 22.5569Z" fill="#E6E6E6"/>
<path d="M556.464 31.0929C560.235 31.0929 563.292 28.0355 563.292 24.2641C563.292 20.4927 560.235 17.4353 556.464 17.4353C552.692 17.4353 549.635 20.4927 549.635 24.2641C549.635 28.0355 552.692 31.0929 556.464 31.0929Z" fill="#E6E6E6"/>
<path d="M575.242 31.0929C579.013 31.0929 582.071 28.0355 582.071 24.2641C582.071 20.4927 579.013 17.4353 575.242 17.4353C571.47 17.4353 568.413 20.4927 568.413 24.2641C568.413 28.0355 571.47 31.0929 575.242 31.0929Z" fill="#E6E6E6"/>
<path d="M594.021 31.0929C597.793 31.0929 600.85 28.0355 600.85 24.2641C600.85 20.4927 597.793 17.4353 594.021 17.4353C590.25 17.4353 587.192 20.4927 587.192 24.2641C587.192 28.0355 590.25 31.0929 594.021 31.0929Z" fill="#E6E6E6"/>
<path d="M292.323 226.571C292.323 227.516 293.082 228.275 294.027 228.275H586.55C587.495 228.275 588.254 227.516 588.254 226.571C588.254 225.626 587.495 224.867 586.55 224.867H294.027C293.082 224.867 292.323 225.626 292.323 226.571Z" fill="#909090"/>
<path d="M524.323 467.571C524.323 468.516 525.082 469.275 526.027 469.275H818.55C819.495 469.275 820.254 468.516 820.254 467.571C820.254 466.626 819.495 465.867 818.55 465.867H526.027C525.082 465.867 524.323 466.626 524.323 467.571Z" fill="#909090"/>
<path d="M558.499 360.498H382.95C380.05 360.498 377.689 358.138 377.689 355.237C377.689 352.336 380.05 349.977 382.95 349.977H558.499C561.399 349.977 563.759 352.336 563.759 355.237C563.759 358.138 561.399 360.498 558.499 360.498Z" fill="#F9F9F9"/>
<path d="M329.706 367.474C336.823 367.474 342.593 361.704 342.593 354.587C342.593 347.47 336.823 341.7 329.706 341.7C322.588 341.7 316.819 347.47 316.819 354.587C316.819 361.704 322.588 367.474 329.706 367.474Z" fill="#F9F9F9"/>
<path d="M328.274 376.066V373.202C338.933 373.202 347.604 364.53 347.604 353.871C347.604 343.212 338.933 334.54 328.274 334.54V331.677C340.512 331.677 350.468 341.633 350.468 353.871C350.468 366.109 340.512 376.066 328.274 376.066Z" fill="#909090"/>
<path d="M174.781 302.615C180.038 297.265 187.059 295.641 190.463 298.987C193.867 302.333 192.365 309.381 187.105 314.732C185.034 316.898 182.473 318.537 179.639 319.511L157.079 341.896L146.8 331.086L170.131 310.165C171.056 307.313 172.65 304.724 174.781 302.615Z" fill="#F9F9F9"/>
<path d="M102.633 284.137L126.286 336.61L164.056 316.165L177.574 323.339C177.574 323.339 146.697 374.959 125.556 369.083C104.415 363.206 66.8739 309.925 73.6378 293.48C80.4018 277.036 102.633 284.137 102.633 284.137Z" fill="#E6E6E6"/>
<path d="M0 644.013C0 644.673 0.53003 645.203 1.19006 645.203H730.48C731.14 645.203 731.67 644.673 731.67 644.013C731.67 643.353 731.14 642.823 730.48 642.823H1.19006C0.53003 642.823 0 643.353 0 644.013Z" fill="#909090"/>
<path d="M218.322 387.479C254.165 387.479 283.221 359.035 283.221 323.947C283.221 288.86 254.165 260.416 218.322 260.416C182.48 260.416 153.423 288.86 153.423 323.947C153.423 359.035 182.48 387.479 218.322 387.479Z" fill="#E1E1E1"/>
<path d="M92.2613 633.848L109.508 633.846L117.713 567.322L92.2578 567.324L92.2613 633.848Z" fill="#F9F9F9"/>
<path d="M151.351 633.457C151.888 634.361 152.172 637.28 152.172 638.332C152.172 641.565 149.551 644.186 146.318 644.186H92.9064C90.701 644.186 88.913 642.398 88.913 640.193V637.969C88.913 637.969 86.2708 631.285 91.7107 623.048C91.7107 623.048 98.4717 629.498 108.574 619.395L111.554 613.998L133.119 629.77L145.072 631.241C147.687 631.563 150.006 631.191 151.351 633.457Z" fill="#0F0F0F"/>
<path d="M105.312 287.504L105.661 264.242L91.3158 255.3L75.7173 274.38L105.312 287.504Z" fill="#F9F9F9"/>
<path opacity="0.1" d="M105.312 287.504L106.241 264.822L91.3159 255.3L96.3866 283.37L105.312 287.504Z" fill="black"/>
<path d="M140.15 441.325L116.384 603.047H86.5673L90.5321 510.732L92.6189 462.192L86.5673 439.087C86.5673 439.087 83.8082 433.951 81.4838 427.726C78.8638 420.701 76.7945 412.278 79.8666 408.285C80.9969 406.812 83.9357 405.723 87.9295 404.911C90.3698 404.413 93.2101 404.024 96.2765 403.723C113.909 401.978 138.991 403.068 138.991 403.068L139.628 424.109L139.982 435.859L140.15 441.325Z" fill="#0F0F0F"/>
<path d="M61.8804 625.939L78.9441 628.446L96.7378 563.822L71.5534 560.122L61.8804 625.939Z" fill="#F9F9F9"/>
<path d="M120.399 634.147C120.799 635.12 120.654 638.049 120.501 639.09C120.031 642.288 117.057 644.5 113.859 644.03L61.0149 636.261C58.8329 635.94 57.324 633.911 57.6448 631.729L57.9683 629.529C57.9683 629.529 56.3263 622.532 62.9065 615.173C62.9065 615.173 68.6574 622.538 80.1222 614.013L83.8548 609.106L102.897 627.847L114.509 631.042C117.049 631.74 119.398 631.71 120.399 634.147Z" fill="#0F0F0F"/>
<path d="M140.524 414.354L137.264 442.426L119.488 501.582L90.2245 598.973L60.7278 594.638L87.2008 456.163L84.5795 432.418C84.5795 432.418 83.7259 430.058 82.7474 426.602C80.8051 419.766 78.369 408.634 81.0491 402.955C81.4109 402.183 81.8652 401.514 82.4272 400.971C83.4814 399.949 85.6238 399.328 88.4942 398.999C100.492 397.643 125.201 401.521 136.195 403.425L140.524 414.354Z" fill="#191919"/>
<path d="M78.997 269.459L107.979 283.37C107.979 283.37 138.701 374.375 138.701 379.012C138.701 383.65 147.396 386.548 142.179 391.765C136.962 396.981 151.889 401.4 143.846 405.567C135.803 409.734 85.6288 432.527 80.0497 430.472C64.6622 424.803 80.7017 403.971 80.7017 403.971C80.7017 403.971 69.143 394.663 70.8819 390.026C72.6209 385.388 60.4482 296.702 60.4482 296.702L78.997 269.459Z" fill="#E6E6E6"/>
<path d="M167.31 349.648C174.502 347.523 181.429 349.512 182.781 354.09C184.132 358.668 179.397 364.1 172.202 366.225C169.339 367.113 166.305 367.302 163.354 366.778L132.764 375.397L129.025 360.956L159.579 353.992C161.772 351.947 164.423 350.458 167.31 349.648Z" fill="#F9F9F9"/>
<path d="M113.204 298.469L108.409 355.826L151.355 356.288L159.69 369.122C159.69 369.122 107.637 399.262 92.0067 383.862C76.3766 368.461 69.422 303.654 83.3185 292.561C97.2151 281.468 113.204 298.469 113.204 298.469Z" fill="#E6E6E6"/>
<path d="M104.708 270.991C118.42 270.991 129.536 259.875 129.536 246.163C129.536 232.451 118.42 221.335 104.708 221.335C90.9961 221.335 79.8804 232.451 79.8804 246.163C79.8804 259.875 90.9961 270.991 104.708 270.991Z" fill="#F9F9F9"/>
<path d="M91.3166 246.261C91.3166 246.261 95.2264 239.81 97.3769 236.486C99.5273 233.163 99.5273 228.294 99.5273 228.294C99.5273 228.294 119.468 227.884 126.114 233.554C132.761 239.223 137.453 218.305 131.002 211.072C131.002 211.072 128.265 214.2 128.851 215.373L129.438 216.546C129.438 216.546 126.114 203.252 116.535 200.711C116.535 200.711 111.206 203.463 112.698 205.019C114.189 206.576 101.287 195.628 97.3769 202.079C97.3769 202.079 87.7977 201.884 88.9707 205.403L88.3842 207.553C88.3842 207.553 80.1735 205.012 79.587 211.072C79.587 211.072 82.5194 211.072 84.0833 212.636C85.6473 214.2 78.414 218.696 78.414 218.696C78.414 218.696 70.0078 241.764 81.3464 251.148C81.3464 251.148 81.4442 239.907 85.9405 242.644C90.4369 245.381 91.3166 246.261 91.3166 246.261Z" fill="#0F0F0F"/>
<path d="M114.944 260.923L114.052 263.269L120.738 263.464L121.184 261.314L114.944 260.923Z" fill="#0F0F0F"/>
<path d="M121.63 252.517C121.63 252.517 111.601 249.78 105.584 257.99L104.247 259.554C104.247 259.554 91.5435 245.283 92.6578 240.005L89.9834 240.2L87.3091 253.885C87.3091 253.885 95.7778 268.547 107.59 269.133C107.59 269.133 118.955 271.87 121.407 267.179C123.858 262.487 128.079 255.568 128.079 255.568L121.63 252.517ZM119.806 265.615H113.161C111.601 265.615 107.59 259.945 107.59 259.945C109.818 256.426 116.504 256.231 116.504 256.231H123.765L124.304 258.381L119.806 265.615Z" fill="#0F0F0F"/>
<path d="M605.599 635.737L594.698 633.381L598.597 590.213L614.686 593.69L605.599 635.737Z" fill="#F9F9F9"/>
<path d="M568.304 627.421C567.841 627.919 567.263 629.725 567.119 630.39C566.678 632.433 567.976 634.448 570.02 634.889L603.78 642.183C605.174 642.485 606.548 641.599 606.849 640.205L607.153 638.799C607.153 638.799 609.736 634.936 607.422 628.986C607.422 628.986 602.268 632.14 597.262 624.374L596.116 620.556L580.331 627.58L572.575 626.878C570.878 626.724 569.463 626.172 568.304 627.421Z" fill="#0F0F0F"/>
<path d="M586.1 632.435L577.006 625.979L597.576 587.827L610.999 597.355L586.1 632.435Z" fill="#F9F9F9"/>
<path d="M555.086 610.114C554.464 610.39 553.222 611.823 552.829 612.378C551.619 614.083 552.02 616.446 553.725 617.656L581.891 637.645C583.054 638.47 584.666 638.197 585.492 637.034L586.324 635.861C586.324 635.861 590.218 633.325 590.433 626.945C590.433 626.945 584.453 627.817 582.907 618.708L583.355 614.747L566.08 614.993L559.226 611.295C557.727 610.486 556.643 609.423 555.086 610.114Z" fill="#0F0F0F"/>
<path d="M717.117 419.008C717.117 419.008 734.077 442.065 700.158 467.988L630.907 445.86L655.64 394.275L677.545 382.263L717.117 419.008Z" fill="#1A1A1A"/>
<path d="M630.907 445.86L604.055 498.151L587.096 606.974L608.295 608.387L629.494 505.218L666.946 449.393L640.8 437.38" fill="#1A1A1A"/>
<g filter="url(#filter0_d_108_330)">
<path d="M700.158 451.563V467.988L652.107 520.764C652.107 520.764 652.107 560.336 633.734 578.708L612.535 611.214L594.162 601.321L621.014 506.631L669.066 444.447L700.158 451.563Z" fill="#1A1A1A"/>
</g>
<path d="M666.012 288.723L673.299 323.234L701.079 316.445C701.079 316.445 687.347 287.883 690.079 276.568L666.012 288.723Z" fill="#F9F9F9"/>
<path opacity="0.1" d="M666.012 288.723L673.299 323.234L701.079 316.445C701.079 316.445 687.347 287.883 690.079 276.568L666.012 288.723Z" fill="#939393"/>
<path d="M692.385 293.933L671.186 303.826C671.186 303.826 660.28 310.491 660.08 314.931C659.88 319.372 661.293 340.571 661.293 340.571C661.293 340.571 652.813 349.05 658.466 366.01L655.64 394.275L719.237 428.194L713.584 368.836L716.411 313.719L692.385 293.933Z" fill="#E0E0E0"/>
<path d="M711.414 454.521C708.932 460.216 703.981 463.551 700.357 461.971C696.733 460.391 695.808 454.494 698.292 448.797C699.253 446.508 700.748 444.482 702.653 442.889L713.474 418.893L724.627 424.211L712.775 447.303C712.904 449.783 712.437 452.258 711.414 454.521Z" fill="#F9F9F9"/>
<path d="M700.158 317.006C700.158 317.006 715.704 307.113 721.357 318.42C727.01 329.726 739.729 387.67 739.729 387.67L721.357 442.788L704.398 435.722L719.237 376.403L700.158 317.006Z" fill="#E0E0E0"/>
<path d="M620.481 445.869C616.075 450.249 610.244 451.527 607.457 448.722C604.67 445.918 605.983 440.095 610.391 435.714C612.127 433.94 614.264 432.608 616.621 431.829L635.522 413.506L643.931 422.559L624.405 439.661C623.612 442.014 622.266 444.143 620.481 445.869Z" fill="#F9F9F9"/>
<path d="M660.677 313.88C660.677 313.88 687.781 312.772 688.871 325.366C689.961 337.959 671.433 394.153 671.433 394.153L634.047 438.625L620.884 425.808L656.533 376.128L660.677 313.88Z" fill="#E0E0E0"/>
<path d="M738.934 463.127L565.626 435.174C562.762 434.712 560.808 432.006 561.27 429.142C561.732 426.278 564.438 424.325 567.301 424.787L740.61 452.74C743.474 453.202 745.427 455.907 744.965 458.771C744.503 461.635 741.798 463.589 738.934 463.127Z" fill="#F9F9F9"/>
<path d="M514.003 433.747C521.12 433.747 526.89 427.977 526.89 420.86C526.89 413.743 521.12 407.973 514.003 407.973C506.885 407.973 501.115 413.743 501.115 420.86C501.115 427.977 506.885 433.747 514.003 433.747Z" fill="#F9F9F9"/>
<path d="M509.169 441.837L509.625 439.009C520.148 440.707 530.089 433.527 531.787 423.003C533.484 412.48 526.304 402.538 515.781 400.841L516.237 398.014C528.319 399.963 536.563 411.377 534.614 423.459C532.665 435.542 521.251 443.785 509.169 441.837Z" fill="#909090"/>
<path d="M662.5 451.5L621 506.5L593 606.5L594.5 612" stroke="#0F0F0F" stroke-linecap="round"/>
<path d="M668.79 296.059C680.579 296.059 690.135 286.502 690.135 274.714C690.135 262.926 680.579 253.37 668.79 253.37C657.002 253.37 647.446 262.926 647.446 274.714C647.446 286.502 657.002 296.059 668.79 296.059Z" fill="#F9F9F9"/>
<path d="M681.404 274.714C681.404 274.714 668.079 262.619 659.541 266.888C651.004 271.157 646.735 274.003 646.735 274.003C646.735 274.003 639.62 263.331 650.292 254.082C650.292 254.082 628.571 244.592 644.412 229.771C660.253 214.951 674.482 220.643 674.482 220.643C674.482 220.643 693.692 229.18 680.174 246.256C680.174 246.256 699.867 258.745 689.665 279.181C689.665 279.181 688.712 266.177 685.866 269.734C683.02 273.291 681.404 274.714 681.404 274.714Z" fill="#0F0F0F"/>
<path d="M240.62 347.867C232.461 327.806 224.301 307.745 216.142 287.683C215.015 284.913 211.484 284.814 210.385 287.683C202.322 308.716 197.054 330.663 194.521 353.04C194.09 356.851 200.064 356.82 200.492 353.04C201.483 344.283 202.954 335.592 204.843 326.994C211.567 327.346 218.345 326.592 224.834 324.796C228.177 333.015 231.52 341.235 234.863 349.454C236.292 352.967 242.07 351.43 240.62 347.867ZM206.197 321.091C208.208 312.86 210.619 304.727 213.416 296.724L222.566 319.221C217.207 320.627 211.726 321.253 206.197 321.091Z" fill="#F9F9F9"/>
<path d="M252.127 352.885C255.441 352.885 258.127 350.198 258.127 346.885C258.127 343.571 255.441 340.885 252.127 340.885C248.813 340.885 246.127 343.571 246.127 346.885C246.127 350.198 248.813 352.885 252.127 352.885Z" fill="#F9F9F9"/>
<path d="M189.127 299.885C192.441 299.885 195.127 297.198 195.127 293.885C195.127 290.571 192.441 287.885 189.127 287.885C185.813 287.885 183.127 290.571 183.127 293.885C183.127 297.198 185.813 299.885 189.127 299.885Z" fill="#F9F9F9"/>
<defs>
<filter id="filter0_d_108_330" x="592.162" y="440.447" width="109.996" height="170.767" filterUnits="userSpaceOnUse" color-interpolation-filters="sRGB">
<feFlood flood-opacity="0" result="BackgroundImageFix"/>
<feColorMatrix in="SourceAlpha" type="matrix" values="0 0 0 0 0 0 0 0 0 0 0 0 0 0 0 0 0 0 127 0" result="hardAlpha"/>
<feOffset dy="-2"/>
<feGaussianBlur stdDeviation="1"/>
<feComposite in2="hardAlpha" operator="out"/>
<feColorMatrix type="matrix" values="0 0 0 0 0 0 0 0 0 0 0 0 0 0 0 0 0 0 1 0"/>
<feBlend mode="normal" in2="BackgroundImageFix" result="effect1_dropShadow_108_330"/>
<feBlend mode="normal" in="SourceGraphic" in2="effect1_dropShadow_108_330" result="shape"/>
</filter>
</defs>
</svg>
