<svg width="881" height="208" viewBox="0 0 881 208" fill="none" xmlns="http://www.w3.org/2000/svg">
<path d="M257.381 159.08H236.201L219.011 129.45L208.451 142.04V159.04H190.071V46H208.451V113.47L233.451 83.73H257.451L231.601 114.53L257.381 159.08Z" fill="black"/>
<path d="M321.161 83.73H339.551V159.12H321.161L320.331 149.77C318.296 153.11 315.491 155.915 312.151 157.95C308.522 160.095 304.365 161.179 300.151 161.08C294.752 161.108 289.406 160.015 284.451 157.87C279.643 155.809 275.277 152.841 271.591 149.13C267.91 145.422 264.968 141.047 262.921 136.24C260.825 131.28 259.764 125.944 259.801 120.56C259.754 112.893 261.976 105.384 266.188 98.9782C270.4 92.5722 276.414 87.5555 283.471 84.56C288.235 82.5361 293.365 81.5148 298.541 81.56C303.214 81.4847 307.825 82.629 311.921 84.88C315.786 87.0245 319.204 89.8895 321.991 93.32L321.161 83.73ZM299.671 143.36C303.355 143.428 306.977 142.405 310.081 140.42C313.105 138.445 315.548 135.701 317.161 132.47C318.852 129.021 319.731 125.231 319.731 121.39C319.731 117.549 318.852 113.759 317.161 110.31C315.551 107.051 313.092 104.287 310.041 102.31C306.947 100.335 303.341 99.3127 299.671 99.37C295.928 99.343 292.254 100.384 289.081 102.37C285.854 104.373 283.199 107.173 281.37 110.501C279.541 113.829 278.601 117.573 278.641 121.37C278.594 125.253 279.585 129.078 281.511 132.45C283.352 135.691 285.984 138.412 289.161 140.36C292.315 142.318 295.959 143.344 299.671 143.32V143.36Z" fill="black"/>
<path d="M423.681 111.44V159.08H405.291V116.26C405.323 113.41 404.565 110.606 403.101 108.16C401.68 105.759 399.67 103.759 397.261 102.35C394.792 100.941 391.999 100.2 389.156 100.2C386.313 100.2 383.52 100.941 381.051 102.35C378.645 103.749 376.646 105.752 375.251 108.16C373.808 110.613 373.064 113.414 373.101 116.26V159.08H354.701L354.631 83.7301H373.021L373.101 90.4401C375.772 87.6337 378.989 85.4035 382.554 83.8866C386.119 82.3698 389.957 81.5985 393.831 81.6201C399.103 81.5558 404.291 82.9394 408.831 85.6201C413.288 88.2442 417.01 91.9524 419.651 96.4001C422.349 100.948 423.743 106.152 423.681 111.44Z" fill="black"/>
<path d="M494.241 46H512.631V159.08H494.241V149.65C491.83 153.016 488.719 155.821 485.121 157.87C481.23 160.037 476.833 161.131 472.381 161.04C467.096 161.08 461.86 160.028 457.001 157.95C447.479 153.857 439.896 146.259 435.821 136.73C433.781 131.861 432.731 126.634 432.731 121.355C432.731 116.076 433.781 110.849 435.821 105.98C439.902 96.462 447.485 88.876 457.001 84.79C461.862 82.7224 467.098 81.6806 472.381 81.73C476.828 81.6397 481.222 82.7191 485.121 84.86C488.736 86.903 491.851 89.7245 494.241 93.12V46ZM472.601 143.32C476.285 143.388 479.907 142.365 483.011 140.38C486.034 138.405 488.478 135.661 490.091 132.43C491.782 128.981 492.661 125.191 492.661 121.35C492.661 117.509 491.782 113.719 490.091 110.27C488.481 107.011 486.021 104.247 482.971 102.27C479.877 100.295 476.271 99.2727 472.601 99.33C468.857 99.303 465.184 100.344 462.011 102.33C458.784 104.333 456.128 107.133 454.3 110.461C452.471 113.789 451.531 117.533 451.571 121.33C451.531 125.137 452.479 128.888 454.323 132.219C456.167 135.549 458.843 138.344 462.091 140.33C465.242 142.299 468.886 143.335 472.601 143.32Z" fill="black"/>
<path d="M586.451 83.73H604.851V159.12H586.451L585.621 149.77C583.588 153.112 580.783 155.918 577.441 157.95C573.812 160.095 569.655 161.179 565.441 161.08C560.051 161.118 554.712 160.039 549.761 157.91C540.072 153.737 532.364 145.99 528.241 136.28C526.137 131.322 525.072 125.986 525.111 120.6C525.074 115.481 526.054 110.406 527.996 105.669C529.937 100.933 532.801 96.6297 536.421 93.01C539.968 89.4556 544.164 86.6143 548.781 84.64C553.549 82.6161 558.682 81.5949 563.861 81.64C568.533 81.567 573.145 82.7112 577.241 84.96C581.103 87.1048 584.518 89.9698 587.301 93.4L586.451 83.73ZM564.951 143.32C568.632 143.389 572.251 142.366 575.351 140.38C578.384 138.41 580.835 135.665 582.451 132.43C584.135 128.979 585.011 125.19 585.011 121.35C585.011 117.51 584.135 113.721 582.451 110.27C580.838 107.01 578.374 104.246 575.321 102.27C572.231 100.295 568.628 99.2723 564.961 99.33C561.218 99.303 557.544 100.344 554.371 102.33C551.138 104.326 548.478 107.125 546.648 110.455C544.819 113.784 543.882 117.531 543.931 121.33C543.881 125.212 544.868 129.037 546.791 132.41C548.632 135.651 551.264 138.372 554.441 140.32C557.592 142.29 561.235 143.33 564.951 143.32Z" fill="black"/>
<path d="M663.101 159.08H639.351L611.911 83.62H631.511L651.261 137.89L670.941 83.62H690.541L663.101 159.08Z" fill="black"/>
<path d="M701.771 83.73H720.161V159.12H701.771V83.73Z" fill="black"/>
<path d="M738.451 159.08V46H756.851V159.08H738.451Z" fill="black"/>
<path d="M774.891 159.08V46H793.281V159.08H774.891Z" fill="black"/>
<path d="M843.451 161.04C836.74 161.121 830.147 159.278 824.451 155.73C818.755 152.166 814.061 147.21 810.811 141.33C807.881 135.947 806.169 129.986 805.798 123.869C805.426 117.752 806.404 111.628 808.661 105.93C810.551 101.244 813.298 96.9504 816.761 93.27C820.163 89.6594 824.24 86.7512 828.761 84.71C833.63 82.5691 838.909 81.5172 844.227 81.6278C849.545 81.7383 854.775 83.0086 859.551 85.35C864.407 87.8053 868.666 91.2936 872.031 95.57C875.56 100.062 878.136 105.226 879.601 110.747C881.066 116.268 881.389 122.03 880.551 127.68H825.451C826.111 130.406 827.289 132.979 828.921 135.26C830.574 137.565 832.757 139.438 835.286 140.723C837.814 142.007 840.615 142.665 843.451 142.64C846.537 142.728 849.584 141.93 852.231 140.34C854.899 138.731 857.158 136.527 858.831 133.9L877.601 138.27C874.598 144.879 869.856 150.547 863.881 154.67C857.906 158.88 850.76 161.108 843.451 161.04ZM824.911 113.85H862.001C861.466 110.892 860.266 108.095 858.491 105.67C856.748 103.261 854.494 101.267 851.891 99.83C849.318 98.4065 846.426 97.6597 843.486 97.6597C840.546 97.6597 837.654 98.4065 835.081 99.83C832.515 101.27 830.291 103.249 828.561 105.63C826.76 108.076 825.502 110.879 824.871 113.85H824.911Z" fill="black"/>
<path d="M711.051 71.99C699.351 72.51 696.641 51.48 713.501 53.45C722.941 55.26 723.141 71.61 711.051 71.99Z" fill="#FF9900"/>
<path d="M166.071 156.588C166.084 164.44 164.182 172.177 160.531 179.128C149.601 199.838 125.941 207.488 106.601 197.128C105.771 196.678 104.951 196.198 104.131 195.678L102.011 194.338L36.6506 153.038L31.6506 149.888L20.6506 142.938C7.34064 134.528 -0.0793598 119.238 0.000640244 103.538C-0.0793598 87.8484 7.34064 72.5385 20.6506 64.1385L31.6506 57.1385L36.6506 53.9885L102.011 12.7085L104.131 11.3685C104.944 10.8551 105.764 10.3751 106.591 9.92847C112.156 6.90512 118.387 5.31723 124.721 5.30847C138.991 5.30847 152.871 13.4085 160.521 27.9085C171.921 49.5085 165.161 77.1285 145.411 89.5985L124.251 103.028V104.028L145.421 117.428C158.671 125.798 166.071 140.978 166.071 156.588Z" fill="#FF9900"/>
<path d="M166.071 156.588C166.084 164.44 164.182 172.177 160.531 179.128C149.601 199.838 125.941 207.488 106.601 197.128C105.771 196.678 104.951 196.198 104.131 195.678L102.011 194.338L36.6506 153.038L31.6506 149.888L20.6506 142.938C7.34064 134.528 -0.0793598 119.238 0.000640244 103.538C-0.0793598 87.8484 7.34064 72.5385 20.6506 64.1385L31.6506 57.1385L36.6506 53.9885L102.011 12.7085L104.131 11.3685C104.944 10.8551 105.764 10.3751 106.591 9.92847C112.156 6.90512 118.387 5.31723 124.721 5.30847C138.991 5.30847 152.871 13.4085 160.521 27.9085C171.921 49.5085 165.161 77.1285 145.411 89.5985L124.251 103.028L123.451 103.538L124.251 104.048L145.421 117.428C158.671 125.798 166.071 140.978 166.071 156.588Z" fill="#FF9900"/>
<path d="M36.6506 48.1285L31.6506 51.2885V46.2885C31.6473 38.0638 33.8365 29.9868 37.9925 22.8893C42.1486 15.7918 48.1214 9.93043 55.2958 5.90873C62.4703 1.88704 70.5871 -0.1496 78.8104 0.00855748C87.0336 0.166715 95.0661 2.51395 102.081 6.80855C101.871 6.91855 101.661 7.04854 101.461 7.17854L97.2506 9.82853L36.6506 48.1285Z" fill="black"/>
<path d="M101.461 199.889C101.661 200.019 101.871 200.149 102.081 200.259C95.0661 204.553 87.0336 206.9 78.8104 207.059C70.5871 207.217 62.4703 205.18 55.2958 201.158C48.1214 197.137 42.1486 191.275 37.9925 184.178C33.8365 177.08 31.6473 169.003 31.6506 160.779V155.779L36.6506 158.939L97.2506 197.259L101.461 199.889Z" fill="black"/>
<path d="M124.251 46.3085V160.779C124.25 167.772 122.664 174.674 119.613 180.967C116.561 187.259 112.122 192.778 106.631 197.109C105.801 196.659 104.981 196.179 104.161 195.659L102.041 194.319L36.6506 153.038L31.6506 149.889V57.1885L36.6506 54.0385L102.011 12.7585L104.131 11.4185C104.944 10.9052 105.764 10.4252 106.591 9.97852C112.09 14.3048 116.536 19.8219 119.595 26.1146C122.653 32.4073 124.245 39.3117 124.251 46.3085Z" fill="black"/>
<path d="M97.2506 9.82849L36.6506 48.1285V46.3085C36.6563 39.1924 38.5006 32.1984 42.0047 26.0048C45.5088 19.8112 50.5538 14.6281 56.6505 10.958C62.7472 7.2879 69.6887 5.25537 76.8021 5.05748C83.9155 4.85959 90.9593 6.50303 97.2506 9.82849Z" fill="black"/>
<path d="M36.6508 158.958L97.2508 197.258C90.9582 200.593 83.9101 202.245 76.791 202.051C69.6718 201.858 62.7236 199.828 56.621 196.156C50.5184 192.485 45.4688 187.298 41.9627 181.099C38.4565 174.9 36.6129 167.9 36.6108 160.779L36.6508 158.958Z" fill="black"/>
<path d="M119.251 46.3085V160.779C119.256 167.335 117.698 173.798 114.704 179.631C111.711 185.464 107.37 190.5 102.041 194.319L36.6506 153.039V54.0385L102.011 12.7585C103.831 14.0686 105.544 15.5233 107.131 17.1085C110.976 20.9366 114.026 25.4872 116.106 30.4985C118.186 35.5097 119.255 40.8828 119.251 46.3085Z" fill="black"/>
</svg>
